<?xml version="1.0" encoding="utf-8"?>
<!-- Generator: Adobe Illustrator 22.0.1, SVG Export Plug-In . SVG Version: 6.00 Build 0)  -->
<svg version="1.1" baseProfile="basic" id="Calque_2_1_"
	 xmlns="http://www.w3.org/2000/svg" xmlns:xlink="http://www.w3.org/1999/xlink" x="0px" y="0px" viewBox="0 0 130 51"
	 xml:space="preserve">
<style type="text/css">
	.st0{fill:#1D1D1B;}
</style>
<g id="Ynov_Campus_1_">
	<g>
		<path class="st0" d="M43.1,40.1l-1.2,1.4c-0.8-0.9-2.1-1.5-3.3-1.5c-2.4,0-4.2,1.8-4.2,4.1c0,2.4,1.9,4.1,4.2,4.1
			c1.2,0,2.4-0.6,3.3-1.4l1.2,1.3c-1.2,1.2-2.9,1.9-4.6,1.9c-3.4,0-6.1-2.6-6.1-6c0-3.3,2.7-5.9,6.1-5.9
			C40.3,38.2,42.1,38.9,43.1,40.1"/>
		<path class="st0" d="M48.9,47.4l-1.2,2.7h-2.1l5.2-11.8h2l5.2,11.8h-2.1l-1.2-2.7H48.9z M51.8,40.4l-2.2,5.2h4.5L51.8,40.4z"/>
		<polygon class="st0" points="72.3,50 72.2,41.3 68.5,48.8 67.2,48.8 63.5,41.3 63.5,50 61.7,50 61.7,38.3 64.1,38.3 67.9,46.1
			71.7,38.3 74.1,38.3 74.1,50 		"/>
		<path class="st0" d="M83.9,38.3c2.9,0,4.6,1.4,4.6,4c0,2.7-1.6,4.2-4.6,4.2h-2.7v3.5h-2V38.3H83.9z M81.2,44.7h2.6
			c1.8,0,2.8-0.8,2.8-2.4c0-1.5-1.1-2.2-2.8-2.2h-2.6V44.7z"/>
		<path class="st0" d="M102.6,45.1c0,3.1-1.9,4.9-5.1,4.9c-3.2,0-5.1-1.9-5.1-4.9v-6.8h1.9v6.8c0,2,1.2,3.2,3.2,3.2
			c1.9,0,3.1-1.2,3.1-3.2v-6.8h2V45.1z"/>
		<path class="st0" d="M115.5,39.4l-0.8,1.8c-1.3-0.8-2.6-1.1-3.4-1.1c-1.2,0-1.9,0.5-1.9,1.2c0,2.6,6.4,1.2,6.4,5.4
			c0,2.1-1.9,3.4-4.5,3.4c-1.9,0-3.5-0.7-4.8-1.9l0.8-1.8c1.2,1.1,2.7,1.8,4,1.8c1.4,0,2.2-0.5,2.2-1.4c0-2.6-6.4-1.2-6.4-5.3
			c0-2,1.8-3.3,4.2-3.3C112.9,38.2,114.4,38.7,115.5,39.4"/>
		<path class="st0" d="M81.9,0.9c-8.5,0-15.4,6.9-15.4,15.4s6.9,15.4,15.4,15.4s15.4-6.9,15.4-15.4S90.4,0.9,81.9,0.9 M81.9,24.3
			c-4.5,0-8.1-3.6-8.1-8.1s3.6-8.1,8.1-8.1s8.1,3.6,8.1,8.1S86.4,24.3,81.9,24.3"/>
		<path class="st0" d="M48.1,0.9c-8.5,0-15.4,6.9-15.4,15.4V31h7.3V16.3c0-4.5,3.6-8.1,8.1-8.1s8.1,3.6,8.1,8.1V31h7.3V16.3
			C63.5,7.9,56.5,0.9,48.1,0.9"/>
		<polygon class="st0" points="26.1,1.6 6.8,50 14.7,50 34,1.6 		"/>
		<path class="st0" d="M16.1,16.8c0-0.9-0.2-1.9-0.6-2.8L10.5,1.6H2.7l8.8,22C14.2,22.6,16.1,20,16.1,16.8"/>
		<polygon class="st0" points="119.5,1.6 107.7,30.9 115.7,30.9 127.3,1.6 		"/>
		<path class="st0" d="M108.9,14.1l-4.9-12.5H96l8.8,22c2.7-1.1,4.6-3.6,4.6-6.8C109.5,15.9,109.2,14.9,108.9,14.1"/>
	</g>
</g>
</svg>
