<?xml version="1.0" encoding="utf-8"?>
<!-- Generator: Adobe Illustrator 27.0.1, SVG Export Plug-In . SVG Version: 6.00 Build 0)  -->
<svg version="1.1" id="Calque_1" xmlns="http://www.w3.org/2000/svg" xmlns:xlink="http://www.w3.org/1999/xlink" x="0px" y="0px"
	 viewBox="0 0 536.8 300.8" style="enable-background:new 0 0 536.8 300.8;" xml:space="preserve">
<style type="text/css">
	.st0{fill:#FFFFFF;}
</style>
<g id="Calque_2_00000181047500419432643310000001133843635948620215_">
	<g id="Layer_1">
		<path class="st0" d="M155.7,292.5c-10.1,0-18-8.2-18-18.5s7.9-18.5,18-18.5c5.4,0.2,10.5,2.6,14.1,6.7l5-6.4
			c-5.1-5.1-12-8-19.2-8.1c-14.4-0.3-26.3,11.2-26.6,25.6c0,0.3,0,0.5,0,0.8c0,15.1,11.5,26.7,26.2,26.7c7.4-0.2,14.4-3.3,19.5-8.6
			l-5.1-5.9C166,290.1,161,292.4,155.7,292.5z"/>
		<path class="st0" d="M207.8,247.9l-22.3,52.5h8.9l4.8-11.9h25.4l4.8,11.9h9.1l-22-52.5H207.8z M202.4,280.7l9.5-23.3l9.5,23.3
			H202.4z"/>
		<polygon class="st0" points="281.1,282.8 264.4,247.9 254.3,247.9 254.3,300.4 262.3,300.4 262.3,261.2 278.3,294.9 283.8,294.9 
			299.7,261.2 299.8,300.4 307.6,300.4 307.6,247.9 297.6,247.9 		"/>
		<path class="st0" d="M350.1,247.9H330v52.5h8.5v-15.8h11.6c12.7,0,20-6.9,20-18.8C370.1,254.4,362.8,247.9,350.1,247.9z
			 M349.8,276.6h-11.2v-20.8h11.2c7.8,0,12.2,3.3,12.2,10.2C362,273.2,357.6,276.6,349.8,276.6L349.8,276.6z"/>
		<path class="st0" d="M422,278.6c0,8.9-5.1,14.2-13.3,14.2s-13.5-5.3-13.5-14.2v-30.8h-8.5v30.8c0,13.7,8.4,22.1,22,22.1
			s21.9-8.4,21.9-22.1v-30.8H422V278.6z"/>
		<path class="st0" d="M459.4,261.3c0-3.5,3.2-5.5,8.2-5.5c3.8,0,9.3,1.4,14.8,4.9l3.5-7.8c-5.2-3.5-11.4-5.4-17.6-5.4
			c-11,0-18.4,5.6-18.4,14.6c0,18.7,27.2,12.2,27.2,23.9c0,4-3.5,6.4-9.4,6.4c-5.4,0-11.9-2.7-17.1-7.7l-3.7,7.7
			c5.6,5.3,12.9,8.2,20.6,8.3c11.1,0,19-5.8,19-15.1C486.6,266.6,459.4,272.8,459.4,261.3z"/>
		<path class="st0" d="M341.5,215.1c36.4-0.2,65.7-29.8,65.5-66.2s-29.8-65.7-66.2-65.5c-36.3,0.2-65.6,29.6-65.5,65.9
			C275.4,185.7,305,215.2,341.5,215.1L341.5,215.1z M341.5,114.8c19.1,0.1,34.4,15.6,34.3,34.7s-15.6,34.4-34.7,34.3
			c-19-0.1-34.3-15.5-34.3-34.5C306.9,130.2,322.4,114.7,341.5,114.8L341.5,114.8z"/>
		<path class="st0" d="M129.6,215.1h31.5v-64c0-19.4,15.5-35.2,34.7-35.2s34.7,15.8,34.7,35.2v64H262v-64
			c0-37.1-29.6-67.2-66.2-67.2s-66.2,30.1-66.2,67.2V215.1z"/>
		<path class="st0" d="M58.1,152c0-4.3-0.8-8.5-2.3-12.4L34.4,83.9H0.5l37.7,98.4C50,177.5,58.1,165.9,58.1,152z"/>
		<polygon class="st0" points="486.5,215.1 536.8,83.9 502.9,83.9 452.6,215.1 		"/>
		<path class="st0" d="M459.8,152c0-4.3-0.8-8.5-2.3-12.4l-21.3-55.7h-33.9l37.7,98.4C451.7,177.5,459.8,165.9,459.8,152z"/>
		<polygon class="st0" points="101.2,83.9 18.1,300.4 52,300.4 135.1,83.9 		"/>
		<path class="st0" d="M0,0.9h11.7v40.9H37v9.5H0V0.9z"/>
		<path class="st0" d="M62.5,33.4v17.9H50.8v-18L31.3,0.9h12.4l13.5,22.4L70.6,0.9h11.5L62.5,33.4z"/>
		<path class="st0" d="M81.7,26.1c0-15,11.7-26.1,27.6-26.1s27.6,11,27.6,26.1s-11.7,26.1-27.6,26.1S81.7,41,81.7,26.1z M125,26.1
			c0-9.6-6.8-16.1-15.8-16.1s-15.8,6.5-15.8,16.1s6.8,16.1,15.8,16.1S125,35.6,125,26.1z"/>
		<path class="st0" d="M191.8,0.9v50.4h-9.6l-25.1-30.6v30.6h-11.5V0.9h9.6l25.1,30.6V0.9H191.8z"/>
	</g>
</g>
</svg>
