<?xml version="1.0" encoding="UTF-8"?>
<svg id="Calque_1" data-name="Calque 1" xmlns="http://www.w3.org/2000/svg" viewBox="0 0 413.05 183">
  <defs>
    <style>
      .cls-1 {
        fill: #fff;
      }

      .cls-2 {
        fill: #23b2a4;
      }

      .cls-3 {
        fill: #f40059;
      }
    </style>
  </defs>
  <rect class="cls-3" x="39.37" y="40.01" width="11.28" height="63.1" transform="translate(-34.29 42.27) rotate(-37.56)"/>
  <g>
    <path d="m110.5,113.5l19.28,15.12c-4.64,5.92-11.76,9.38-19.28,9.38-13.44,0-24.5-11.06-24.5-24.5s11.06-24.5,24.5-24.5c6.53,0,12.8,2.61,17.4,7.25l-17.4,17.25Z"/>
    <circle class="cls-1" cx="111" cy="114" r="15"/>
  </g>
  <circle class="cls-2" cx="151" cy="114" r="15"/>
  <circle cx="196.7" cy="113.85" r="24.5"/>
  <circle class="cls-1" cx="197" cy="114" r="15"/>
  <rect x="172.3" y="114" width="9.6" height="25"/>
  <path d="m412.68,89.7s-29.36,0-29.36,0c-.65-.41-.21,9.17-.32,9.28-.02.37,4.66.44,10.3.42v38.6h9.6v-38.69c5.32-.07,9.65-.13,9.78,0,.18,0,.32-.14.32-.32-.17-.07.39-9.73-.32-9.28Z"/>
  <rect x="211.6" y="114" width="9.6" height="25"/>
  <rect class="cls-1" x="182" y="114" width="30" height="28"/>
  <g>
    <circle cx="254.34" cy="113.47" r="24.5"/>
    <circle class="cls-1" cx="254.64" cy="113.62" r="15"/>
    <rect x="229.94" y="113.62" width="9.6" height="25"/>
    <rect x="269.24" y="113.62" width="9.6" height="25"/>
    <rect class="cls-1" x="239.64" y="113.62" width="30" height="28"/>
  </g>
  <path d="m315.02,113.85l6.97,23.49c-2.26.67-4.61,1.01-6.97,1.01-13.44,0-24.5-11.06-24.5-24.5s11.06-24.5,24.5-24.5c2.44,0,4.87.36,7.2,1.08l-7.2,23.42Z"/>
  <circle class="cls-1" cx="315.52" cy="114.35" r="15"/>
  <rect class="cls-3" x="301" y="111" width="14" height="6" rx="2.69" ry="2.69"/>
  <path d="m367.51,123.32c-2.74,3.53-7.02,5.82-11.84,5.82-8.28,0-15-6.72-15-15s6.72-15,15-15c3.91,0,7.46,1.51,10.13,3.96l6.77-6.71c-4.6-4.64-10.87-7.25-17.4-7.25-13.44,0-24.5,11.06-24.5,24.5s11.06,24.5,24.5,24.5c7.52,0,14.64-3.46,19.28-9.38l-6.93-5.44Z"/>
  <rect class="cls-2" x="63.86" y="26.11" width="14.55" height="136.58" transform="translate(52.54 -22.33) rotate(27.95)"/>
  <rect class="cls-1" x="16" y="137" width="87" height="46"/>
  <rect class="cls-1" width="169" height="49"/>
  <rect class="cls-1" x="49" y="92" width="27" height="2" transform="translate(-48.95 104.62) rotate(-62.05)"/>
</svg>